<svg xmlns="http://www.w3.org/2000/svg" width="256" height="256" fill="none" viewBox="0 0 256 256">
  <path d="m145.8 11c-45.58 0-84.71 36.12-88.84 82.1-2.66 28.98 8.31 50.05 18.43 62.74-20.46-10.12-37.27-32.52-37.27-61.06 0-26.72 14.61-51.57 40.67-66.65-16.92 3.96-27.87 9.49-41.87 21.26-19.29 16.49-27.91 40.55-27.91 66.85 0 44.47 37.25 86.29 87.88 86.29 28.57 0 53.08-14.69 69.03-33.59 10.4-14.78-1.03-38.21-1.03-38.21-10.82 30.09-34.89 53.22-68 53.71-33.69 0.49-65.97-23.49-70.37-65.47 10.68 29.91 37.11 56.16 73.27 56.16 10.14 0 20.99-5.12 27.44-8.06-31.21-2.2-52.31-34.04-52.31-64.87 0-39.26 31.01-73.19 73.22-73.19 32.99 0 61.53 20.6 77.98 52.78-5.2-37.87-35.57-70.79-80.32-70.79z" fill="#ffffff"/>
  <path d="m226.5 83.04c-16.55-19.85-39.38-32.3-67.55-32.3-32.15 0-58.05 17.02-70.97 37.15-7.31 11.49-2.27 30.18 1.63 38.19 6.4-27.69 30.56-56.59 68.19-56.59 30.93 0 70.95 24.34 70.95 69.19v7.51c-8.48-33.4-39.54-64.88-75.58-64.88-10.56 0-19.16 3.41-27.95 7.95 29.89 5.5 52.14 34.35 52.14 65.22 0 35.35-28.56 72.51-73.56 72.51-36.74 0-62.2-22.17-77.85-56.35 4.96 39.02 35.35 74.36 80.95 74.36 49.28 0 88.58-45.99 88.58-88.37 0-22.75-7.18-41.62-17.13-55.57 21.37 11.96 35.51 35.67 35.51 63.06 0 24.54-13.65 47.47-38.8 64.39 39.9-9.03 72.55-41.43 72.55-87.83 0-22.27-8.65-43.42-21.11-57.64z" fill="#ffffff"/>
</svg>