<svg xmlns="http://www.w3.org/2000/svg" width="256" height="256" fill="none" viewBox="0 0 256 256">
  <!-- High-quality black logo with refined geometry -->
  <defs>
    <filter id="smoothing">
      <feGaussianBlur in="SourceGraphic" stdDeviation="0.1" />
    </filter>
  </defs>
  
  <g filter="url(#smoothing)">
    <!-- Main path with anti-aliasing -->
    <path d="M145.8 11C100.22 11 61.09 47.12 56.96 93.1 54.3 122.08 65.27 143.15 75.39 155.84 54.93 145.72 38.12 123.32 38.12 94.78 38.12 68.06 52.73 43.21 78.79 28.13 61.87 32.09 50.92 37.62 36.92 49.39 17.63 65.88 9.01 89.94 9.01 116.24 9.01 160.71 46.26 202.53 96.89 202.53 125.46 202.53 150.97 187.84 166.92 168.94 177.32 154.16 166.89 130.73 166.89 130.73 156.07 160.82 132 183.95 99.89 184.44 66.2 184.93 34.92 161.45 30.52 119.47 41.2 149.38 67.63 175.63 103.79 175.63 114.93 175.63 125.78 170.51 132.23 167.57 101.02 165.37 79.92 133.53 79.92 102.7 79.92 63.44 110.93 29.51 153.14 29.51 186.13 29.51 214.67 50.11 231.12 82.29 225.92 44.42 195.55 11.5 145.8 11Z" fill="black" stroke="black" stroke-width="0.5" stroke-linejoin="round" stroke-linecap="round"/>
    
    <!-- Secondary path for depth -->
    <path d="M226.5 83.04C209.95 63.19 187.12 50.74 158.95 50.74 126.8 50.74 100.9 67.76 87.98 87.89 80.67 99.38 85.71 117.07 89.61 127.08 96.01 99.39 120.17 70.49 157.8 70.49 188.73 70.49 228.75 94.83 228.75 139.68V147.19C220.27 113.79 189.21 82.31 153.17 82.31 142.61 82.31 134.01 85.72 126.22 90.26 156.11 95.76 178.36 124.61 178.36 155.48 178.36 190.83 149.8 227.99 104.8 227.99 68.06 227.99 42.6 205.82 26.95 171.64 31.91 210.66 62.3 246.35 107.9 246.35 157.18 246.35 196.48 200.36 196.48 157.98 196.48 135.23 189.3 116.36 179.35 102.41 200.72 114.37 214.86 138.08 214.86 165.47 214.86 190.01 201.21 212.94 176.06 229.86 215.96 220.83 248.61 188.43 248.61 141.53 248.61 119.26 239.96 98.11 227.5 83.89Z" fill="black" stroke="black" stroke-width="0.5" stroke-linejoin="round" stroke-linecap="round"/>
  </g>
</svg>